<svg version="1.1" id="Layer_1" xmlns="http://www.w3.org/2000/svg" xmlns:xlink="http://www.w3.org/1999/xlink" x="0px" y="0px"
	 width="100%" viewBox="0 0 410 265" enable-background="new 0 0 410 265" xml:space="preserve">
<path fill="#121212" opacity="1.000000" stroke="none" 
	d="
M262.000000,266.000000 
	C174.666702,266.000000 87.833397,266.000000 1.000070,266.000000 
	C1.000047,177.666733 1.000047,89.333458 1.000023,1.000141 
	C137.666550,1.000094 274.333099,1.000094 410.999756,1.000047 
	C410.999817,89.333191 410.999817,177.666382 410.999908,265.999786 
	C361.500000,266.000000 312.000000,266.000000 262.000000,266.000000 
M397.201752,192.114426 
	C392.906403,192.114426 388.611053,192.114426 384.266327,192.114426 
	C381.345367,205.283493 378.520233,218.020645 375.695068,230.757812 
	C375.406738,230.784744 375.118408,230.811661 374.830078,230.838593 
	C372.249695,217.939072 369.669312,205.039536 367.083710,192.113770 
	C361.813477,192.113770 357.149597,192.276123 352.504089,192.053986 
	C349.633820,191.916748 348.461945,192.815079 347.901917,195.739822 
	C346.090363,205.200653 343.946716,214.598251 341.897888,224.013000 
	C341.443054,226.103149 340.852448,228.163742 340.324341,230.237946 
	C340.023621,230.164154 339.722931,230.090378 339.422211,230.016586 
	C336.898590,217.500839 334.374969,204.985092 331.852875,192.476959 
	C325.791321,192.476959 319.947906,192.476959 313.692230,192.476959 
	C318.889587,211.481110 323.944427,230.047333 329.108398,248.583130 
	C329.348846,249.446167 330.546082,250.635788 331.328857,250.659805 
	C337.089355,250.836655 342.857788,250.755386 348.541290,250.755386 
	C351.453400,237.976044 354.218170,225.843307 356.982941,213.710571 
	C357.219238,213.764984 357.455536,213.819412 357.691833,213.873825 
	C360.437805,226.147400 363.183807,238.420959 365.909424,250.603516 
	C372.428650,250.603516 378.398041,250.603516 384.652405,250.603516 
	C390.452698,231.180557 396.227936,211.841461 402.119049,192.114410 
	C400.421112,192.114410 399.266174,192.114410 397.201752,192.114426 
M65.984779,208.500000 
	C65.984779,196.262634 65.984779,184.025253 65.984779,171.933289 
	C59.995605,171.933289 54.728931,171.933289 48.891148,171.933289 
	C48.891148,180.017639 48.891148,187.839020 48.891148,196.038086 
	C34.303234,185.742233 18.571064,191.447220 12.629992,205.214905 
	C9.513153,212.437775 9.193662,219.937561 9.752001,227.707474 
	C11.088618,246.307983 31.499916,260.708496 49.856857,246.174423 
	C50.068192,247.679535 50.261005,249.052734 50.470573,250.545303 
	C55.642265,250.545303 60.570984,250.545303 65.984779,250.545303 
	C65.984779,236.714767 65.984779,223.107391 65.984779,208.500000 
M277.956573,191.012283 
	C265.921356,190.018829 257.944336,194.285034 253.104324,204.372314 
	C249.767975,211.325699 249.463272,218.697601 249.724792,226.278137 
	C250.402039,245.907745 271.190002,260.919861 289.848328,246.328278 
	C290.130341,247.753494 290.402740,249.130295 290.670227,250.482117 
	C295.912842,250.482117 300.822235,250.482117 305.818146,250.482117 
	C305.818146,224.135269 305.818146,198.079865 305.818146,172.005371 
	C300.215698,172.005371 294.847870,172.005371 289.075439,172.005371 
	C289.075439,180.063858 289.075439,187.781921 289.075439,195.486786 
	C285.417786,193.933090 282.115601,192.530396 277.956573,191.012283 
M118.538963,197.026871 
	C110.544151,205.032227 109.542084,215.075211 109.834930,225.675751 
	C110.414528,246.655319 132.109222,260.692352 149.941116,246.323822 
	C150.278992,247.760605 150.606827,249.154663 150.905014,250.422684 
	C156.126831,250.422684 161.027023,250.422684 165.838913,250.422684 
	C165.838913,224.010406 165.838913,197.950333 165.838913,171.938858 
	C160.251755,171.938858 154.994965,171.938858 149.305283,171.938858 
	C149.305283,179.958160 149.305283,187.697495 149.305283,195.990265 
	C138.690292,189.279205 128.707169,188.222885 118.538963,197.026871 
M226.461182,250.417847 
	C232.177124,250.417847 237.893082,250.417847 243.631409,250.417847 
	C243.631409,245.570236 243.631409,241.456085 243.631409,236.953094 
	C241.453217,236.953094 239.299637,237.463882 237.593582,236.808960 
	C235.899124,236.158478 233.458450,234.381607 233.405685,233.018906 
	C233.040359,223.583389 233.213135,214.127060 233.213135,204.152283 
	C237.216614,204.152283 240.789383,204.152283 244.402634,204.152283 
	C244.402634,200.401871 244.402634,197.196945 244.402634,193.445557 
	C240.471756,193.445557 236.902649,193.445557 232.969635,193.445557 
	C232.969635,187.125854 232.969635,181.357162 232.969635,175.547882 
	C227.189270,175.547882 221.798447,175.547882 216.022034,175.547882 
	C216.022034,181.662201 216.022034,187.441025 216.022034,193.332214 
	C213.173828,193.481018 210.713440,193.609558 207.997269,193.751465 
	C207.997269,197.167160 207.997269,200.401047 207.997269,203.895630 
	C210.686203,204.030182 213.258713,204.158890 216.122772,204.302185 
	C216.122772,214.936386 216.056137,225.240723 216.146271,235.543701 
	C216.206070,242.380524 218.335342,248.013916 226.461182,250.417847 
M98.427597,227.500275 
	C98.427597,215.773010 98.427597,204.045761 98.427597,192.443207 
	C92.295448,192.443207 86.889320,192.443207 81.433350,192.443207 
	C81.433350,211.960236 81.433350,231.147202 81.433350,250.549789 
	C87.118599,250.549789 92.514954,250.549789 98.427551,250.549789 
	C98.427551,243.054413 98.427551,235.777298 98.427597,227.500275 
M191.644547,62.747688 
	C190.984711,62.817776 190.316376,62.842670 189.666306,62.964813 
	C181.477020,64.503532 176.414154,71.272621 177.638443,79.026962 
	C178.948456,87.324417 187.108871,93.291557 195.845459,92.340492 
	C204.187042,91.432434 209.573212,85.335060 209.133575,77.297745 
	C208.692032,69.225594 202.283157,63.593033 191.644547,62.747688 
M197.141449,44.943333 
	C195.575241,55.467178 210.635101,65.514656 221.910629,63.159607 
	C230.144653,61.439823 233.452255,54.642036 229.046570,47.449818 
	C224.283173,39.673641 216.949310,36.345467 207.968033,36.693058 
	C202.909958,36.888821 199.040588,39.092693 197.141449,44.943333 
M233.538773,95.125587 
	C235.173126,95.920609 236.740021,96.926010 238.453156,97.475304 
	C247.247940,100.295280 253.667801,94.872292 251.931259,85.800232 
	C250.405151,77.827591 245.324081,72.622536 237.695114,69.927559 
	C233.819077,68.558327 230.064606,68.777527 226.958710,71.647820 
	C223.667404,74.689461 222.873627,78.960442 224.639801,82.657616 
	C226.717667,87.007256 230.093903,90.736664 233.538773,95.125587 
M173.721161,125.045471 
	C176.843018,120.235451 177.071030,115.337143 173.765762,110.588531 
	C170.966354,106.566704 166.918655,104.849724 162.056702,105.510551 
	C156.609482,106.250931 152.676895,110.143318 151.641464,115.521797 
	C150.646713,120.689102 153.190125,126.035393 157.854553,128.581711 
	C162.842148,131.304443 168.229935,130.272720 173.721161,125.045471 
M230.535294,131.478149 
	C227.622269,125.383827 224.062378,122.900307 219.285568,123.629944 
	C214.411240,124.374466 210.356049,128.850296 210.363068,134.687531 
	C210.366837,137.819443 211.276321,141.378662 212.949539,143.995392 
	C217.056198,150.417847 225.795609,150.089798 229.157791,143.256882 
	C230.713867,140.094467 230.295151,135.960342 230.535294,131.478149 
M182.424652,51.176384 
	C184.240280,48.631371 187.797821,45.806656 187.445068,43.609810 
	C186.968964,40.644699 183.989914,37.288841 181.180634,35.666161 
	C176.263672,32.826069 170.653824,33.043587 165.504272,35.845112 
	C159.383423,39.175056 158.957581,45.923496 164.721283,49.824402 
	C169.994385,53.393246 175.768738,53.932724 182.424652,51.176384 
M183.287766,242.455505 
	C183.287766,245.062729 183.287766,247.669952 183.287766,250.512054 
	C189.535324,250.512054 195.226044,250.512054 201.092270,250.512054 
	C201.092270,244.166351 201.092270,238.098587 201.092270,231.871552 
	C195.134079,231.871552 189.417099,231.871552 183.287781,231.871552 
	C183.287781,235.266785 183.287781,238.383865 183.287766,242.455505 
M260.843964,129.618927 
	C262.124481,130.661301 263.287292,131.913162 264.705719,132.709991 
	C271.061462,136.280411 277.116302,132.794891 277.026215,125.552414 
	C276.949554,119.386780 274.048431,114.704163 268.508514,111.988960 
	C262.610687,109.098351 256.879822,112.397133 257.139923,118.894295 
	C257.277008,122.318718 259.231445,125.670380 260.843964,129.618927 
M200.880981,210.767227 
	C200.880981,204.670624 200.880981,198.574020 200.880981,192.428192 
	C195.136703,192.428192 189.420410,192.428192 183.672684,192.428192 
	C183.672684,198.782455 183.672684,204.811844 183.672684,211.010788 
	C189.366486,211.010788 194.681442,211.010788 200.880981,210.767227 
M237.254898,52.902279 
	C240.302231,59.673706 245.434006,63.721817 252.909317,64.135353 
	C257.950378,64.414223 260.229156,60.855347 258.071564,56.242825 
	C255.265518,50.244080 250.344772,46.789871 243.807739,46.003510 
	C239.056747,45.432003 237.433472,47.113613 237.254898,52.902279 
M127.508568,73.896416 
	C129.531189,78.251701 133.383133,78.519104 137.273376,77.826447 
	C141.529114,77.068703 145.208984,74.943741 146.717697,70.604675 
	C147.890030,67.233025 146.297562,64.775269 143.048752,63.475033 
	C136.302490,60.775051 128.253113,65.735863 127.508568,73.896416 
M98.409676,174.792740 
	C97.563591,173.748856 96.771637,171.860931 95.862350,171.802597 
	C91.128006,171.498993 86.363800,171.661102 81.478096,171.661102 
	C81.478096,176.372772 81.478096,180.560501 81.478096,184.782257 
	C87.210800,184.782257 92.613724,184.782257 98.411789,184.782257 
	C98.411789,181.624786 98.411789,178.671280 98.409676,174.792740 
M198.492554,32.603241 
	C199.317520,32.517052 200.296417,32.685192 200.938339,32.296616 
	C202.802979,31.167870 205.863159,29.937424 205.992355,28.522116 
	C206.170685,26.568886 204.540863,23.166115 202.902710,22.582870 
	C198.718842,21.093273 194.046188,20.006655 189.673874,20.303337 
	C185.715775,20.571911 184.469482,25.228949 187.614319,27.753317 
	C190.439056,30.020737 194.302658,30.993940 198.492554,32.603241 
M134.510605,33.910343 
	C131.286621,38.158100 131.992691,41.758007 136.962677,42.692162 
	C140.662903,43.387653 144.844650,42.889881 148.506134,41.848408 
	C150.349792,41.323994 152.716324,38.356007 152.639648,36.588699 
	C152.565720,34.884068 149.714874,32.007267 147.974350,31.923508 
	C143.711166,31.718355 139.384750,32.827393 134.510605,33.910343 
M222.723846,25.072227 
	C217.240677,26.734381 216.045197,29.942326 220.384903,33.226288 
	C223.597885,35.657639 227.957443,36.722321 231.957260,37.869045 
	C233.064529,38.186493 235.508057,36.920261 235.911423,35.845203 
	C236.428101,34.468121 236.076691,31.656675 235.094238,31.023924 
	C231.467667,28.688250 227.426743,26.995934 222.723846,25.072227 
M283.091705,91.583176 
	C285.196838,86.264778 279.376068,78.104271 273.944702,79.137535 
	C272.866913,79.342560 271.350647,81.992554 271.546692,83.286232 
	C272.237610,87.845634 277.131165,91.458473 283.091705,91.583176 
M269.105072,60.403019 
	C272.002563,62.210312 275.732330,65.508682 278.249420,62.193951 
	C280.833496,58.791019 276.785522,55.742371 273.910583,54.120476 
	C271.590302,52.811455 267.108734,51.523861 265.994324,52.637272 
	C263.211823,55.417305 266.722504,57.739017 269.105072,60.403019 
M183.077911,14.446859 
	C186.201675,14.509282 189.325455,14.571705 192.449219,14.634127 
	C192.464828,13.730260 192.755646,12.150984 192.453171,12.027744 
	C189.646973,10.884302 186.743668,9.240887 183.858490,9.221244 
	C180.451797,9.198051 179.511749,11.369104 183.077911,14.446859 
M160.423203,21.223200 
	C163.009171,20.788944 165.602142,20.386644 168.160583,19.826593 
	C168.289276,19.798424 168.330643,17.840206 168.055130,17.737230 
	C165.698013,16.856236 163.291641,15.868149 160.828262,15.617559 
	C159.705383,15.503333 158.421051,16.976141 157.209961,17.729120 
	C158.038055,18.821989 158.866165,19.914858 160.423203,21.223200 
M233.037842,18.859627 
	C231.691315,18.960785 230.344788,19.061945 228.827118,19.175962 
	C230.799347,24.862698 234.928986,26.618874 240.658112,23.566145 
	C238.001541,21.800674 235.873245,20.386276 233.037842,18.859627 
M255.268066,39.159176 
	C257.191528,39.690838 260.008972,40.569969 258.700409,37.156467 
	C258.015656,35.370243 254.961365,34.423874 252.864441,33.310646 
	C252.486923,33.110229 251.560135,33.944477 250.886932,34.301018 
	C252.104797,35.845383 253.322678,37.389748 255.268066,39.159176 
M207.858459,13.658450 
	C210.119934,15.255041 212.372787,16.938194 215.156952,14.525344 
	C212.071045,10.229115 209.655273,9.804733 207.858459,13.658450 
z"/>
<path fill="#F9F9F9" opacity="1.000000" stroke="none" 
	d="
M397.656494,192.114410 
	C399.266174,192.114410 400.421112,192.114410 402.119049,192.114410 
	C396.227936,211.841461 390.452698,231.180557 384.652405,250.603516 
	C378.398041,250.603516 372.428650,250.603516 365.909424,250.603516 
	C363.183807,238.420959 360.437805,226.147400 357.691833,213.873825 
	C357.455536,213.819412 357.219238,213.764984 356.982941,213.710571 
	C354.218170,225.843307 351.453400,237.976044 348.541290,250.755386 
	C342.857788,250.755386 337.089355,250.836655 331.328857,250.659805 
	C330.546082,250.635788 329.348846,249.446167 329.108398,248.583130 
	C323.944427,230.047333 318.889587,211.481110 313.692230,192.476959 
	C319.947906,192.476959 325.791321,192.476959 331.852875,192.476959 
	C334.374969,204.985092 336.898590,217.500839 339.422211,230.016586 
	C339.722931,230.090378 340.023621,230.164154 340.324341,230.237946 
	C340.852448,228.163742 341.443054,226.103149 341.897888,224.013000 
	C343.946716,214.598251 346.090363,205.200653 347.901917,195.739822 
	C348.461945,192.815079 349.633820,191.916748 352.504089,192.053986 
	C357.149597,192.276123 361.813477,192.113770 367.083710,192.113770 
	C369.669312,205.039536 372.249695,217.939072 374.830078,230.838593 
	C375.118408,230.811661 375.406738,230.784744 375.695068,230.757812 
	C378.520233,218.020645 381.345367,205.283493 384.266327,192.114426 
	C388.611053,192.114426 392.906403,192.114426 397.656494,192.114410 
z"/>
<path fill="#FBFBFB" opacity="1.000000" stroke="none" 
	d="
M65.984779,209.000000 
	C65.984779,223.107391 65.984779,236.714767 65.984779,250.545303 
	C60.570984,250.545303 55.642265,250.545303 50.470573,250.545303 
	C50.261005,249.052734 50.068192,247.679535 49.856857,246.174423 
	C31.499916,260.708496 11.088618,246.307983 9.752001,227.707474 
	C9.193662,219.937561 9.513153,212.437775 12.629992,205.214905 
	C18.571064,191.447220 34.303234,185.742233 48.891148,196.038086 
	C48.891148,187.839020 48.891148,180.017639 48.891148,171.933289 
	C54.728931,171.933289 59.995605,171.933289 65.984779,171.933289 
	C65.984779,184.025253 65.984779,196.262634 65.984779,209.000000 
M27.708073,214.497757 
	C28.040066,220.386856 27.879665,226.360382 28.870134,232.136581 
	C29.578335,236.266632 32.737152,239.033447 37.365005,239.279648 
	C41.878208,239.519745 45.178200,237.389282 46.986561,233.479507 
	C50.739365,225.365784 50.880508,216.956116 47.034454,208.916626 
	C43.983440,202.539032 35.898323,201.755157 31.258764,207.150620 
	C29.703293,208.959488 28.983719,211.487183 27.708073,214.497757 
z"/>
<path fill="#FBFBFB" opacity="1.000000" stroke="none" 
	d="
M278.385010,191.069992 
	C282.115601,192.530396 285.417786,193.933090 289.075439,195.486786 
	C289.075439,187.781921 289.075439,180.063858 289.075439,172.005371 
	C294.847870,172.005371 300.215698,172.005371 305.818146,172.005371 
	C305.818146,198.079865 305.818146,224.135269 305.818146,250.482117 
	C300.822235,250.482117 295.912842,250.482117 290.670227,250.482117 
	C290.402740,249.130295 290.130341,247.753494 289.848328,246.328278 
	C271.190002,260.919861 250.402039,245.907745 249.724792,226.278137 
	C249.463272,218.697601 249.767975,211.325699 253.104324,204.372314 
	C257.944336,194.285034 265.921356,190.018829 278.385010,191.069992 
M288.925476,229.070297 
	C288.608521,222.841843 289.050781,216.432617 287.630463,210.466858 
	C286.991577,207.783279 282.948364,205.033218 279.885040,204.018433 
	C275.746643,202.647507 271.918610,205.098068 269.961334,208.951920 
	C265.615906,217.508011 265.643707,226.365295 270.201447,234.772430 
	C273.356323,240.591919 281.077789,241.008453 285.380310,235.909973 
	C286.838348,234.182175 287.625946,231.888657 288.925476,229.070297 
z"/>
<path fill="#FBFBFB" opacity="1.000000" stroke="none" 
	d="
M118.806076,196.782257 
	C128.707169,188.222885 138.690292,189.279205 149.305283,195.990265 
	C149.305283,187.697495 149.305283,179.958160 149.305283,171.938858 
	C154.994965,171.938858 160.251755,171.938858 165.838913,171.938858 
	C165.838913,197.950333 165.838913,224.010406 165.838913,250.422684 
	C161.027023,250.422684 156.126831,250.422684 150.905014,250.422684 
	C150.606827,249.154663 150.278992,247.760605 149.941116,246.323822 
	C132.109222,260.692352 110.414528,246.655319 109.834930,225.675751 
	C109.542084,215.075211 110.544151,205.032227 118.806076,196.782257 
M149.899368,221.445572 
	C149.401398,218.012634 149.261230,214.477402 148.316162,211.172302 
	C147.095123,206.902130 144.305710,203.912857 139.441010,203.735123 
	C134.507202,203.554825 131.070435,206.074097 129.279984,210.373734 
	C126.140221,217.913589 126.036827,225.807358 129.534729,233.114319 
	C130.810074,235.778488 134.323639,238.116669 137.300568,239.037796 
	C141.291428,240.272644 145.071350,237.956604 146.725388,234.208466 
	C148.358658,230.507385 148.885162,226.317886 149.899368,221.445572 
z"/>
<path fill="#FBFBFB" opacity="1.000000" stroke="none" 
	d="
M226.062714,250.307434 
	C218.335342,248.013916 216.206070,242.380524 216.146271,235.543701 
	C216.056137,225.240723 216.122772,214.936386 216.122772,204.302185 
	C213.258713,204.158890 210.686203,204.030182 207.997269,203.895630 
	C207.997269,200.401047 207.997269,197.167160 207.997269,193.751465 
	C210.713440,193.609558 213.173828,193.481018 216.022034,193.332214 
	C216.022034,187.441025 216.022034,181.662201 216.022034,175.547882 
	C221.798447,175.547882 227.189270,175.547882 232.969635,175.547882 
	C232.969635,181.357162 232.969635,187.125854 232.969635,193.445557 
	C236.902649,193.445557 240.471756,193.445557 244.402634,193.445557 
	C244.402634,197.196945 244.402634,200.401871 244.402634,204.152283 
	C240.789383,204.152283 237.216614,204.152283 233.213135,204.152283 
	C233.213135,214.127060 233.040359,223.583389 233.405685,233.018906 
	C233.458450,234.381607 235.899124,236.158478 237.593582,236.808960 
	C239.299637,237.463882 241.453217,236.953094 243.631409,236.953094 
	C243.631409,241.456085 243.631409,245.570236 243.631409,250.417847 
	C237.893082,250.417847 232.177124,250.417847 226.062714,250.307434 
z"/>
<path fill="#F9F9F9" opacity="1.000000" stroke="none" 
	d="
M98.427574,228.000229 
	C98.427551,235.777298 98.427551,243.054413 98.427551,250.549789 
	C92.514954,250.549789 87.118599,250.549789 81.433350,250.549789 
	C81.433350,231.147202 81.433350,211.960236 81.433350,192.443207 
	C86.889320,192.443207 92.295448,192.443207 98.427597,192.443207 
	C98.427597,204.045761 98.427597,215.773010 98.427574,228.000229 
z"/>
<path fill="#FBFBFB" opacity="1.000000" stroke="none" 
	d="
M192.081543,62.721497 
	C202.283157,63.593033 208.692032,69.225594 209.133575,77.297745 
	C209.573212,85.335060 204.187042,91.432434 195.845459,92.340492 
	C187.108871,93.291557 178.948456,87.324417 177.638443,79.026962 
	C176.414154,71.272621 181.477020,64.503532 189.666306,62.964813 
	C190.316376,62.842670 190.984711,62.817776 192.081543,62.721497 
z"/>
<path fill="#FAFAFA" opacity="1.000000" stroke="none" 
	d="
M197.217926,44.556660 
	C199.040588,39.092693 202.909958,36.888821 207.968033,36.693058 
	C216.949310,36.345467 224.283173,39.673641 229.046570,47.449818 
	C233.452255,54.642036 230.144653,61.439823 221.910629,63.159607 
	C210.635101,65.514656 195.575241,55.467178 197.217926,44.556660 
z"/>
<path fill="#F9F9F9" opacity="1.000000" stroke="none" 
	d="
M233.222946,94.930313 
	C230.093903,90.736664 226.717667,87.007256 224.639801,82.657616 
	C222.873627,78.960442 223.667404,74.689461 226.958710,71.647820 
	C230.064606,68.777527 233.819077,68.558327 237.695114,69.927559 
	C245.324081,72.622536 250.405151,77.827591 251.931259,85.800232 
	C253.667801,94.872292 247.247940,100.295280 238.453156,97.475304 
	C236.740021,96.926010 235.173126,95.920609 233.222946,94.930313 
z"/>
<path fill="#F8F8F8" opacity="1.000000" stroke="none" 
	d="
M173.482162,125.340195 
	C168.229935,130.272720 162.842148,131.304443 157.854553,128.581711 
	C153.190125,126.035393 150.646713,120.689102 151.641464,115.521797 
	C152.676895,110.143318 156.609482,106.250931 162.056702,105.510551 
	C166.918655,104.849724 170.966354,106.566704 173.765762,110.588531 
	C177.071030,115.337143 176.843018,120.235451 173.482162,125.340195 
z"/>
<path fill="#F8F8F8" opacity="1.000000" stroke="none" 
	d="
M230.653534,131.872467 
	C230.295151,135.960342 230.713867,140.094467 229.157791,143.256882 
	C225.795609,150.089798 217.056198,150.417847 212.949539,143.995392 
	C211.276321,141.378662 210.366837,137.819443 210.363068,134.687531 
	C210.356049,128.850296 214.411240,124.374466 219.285568,123.629944 
	C224.062378,122.900307 227.622269,125.383827 230.653534,131.872467 
z"/>
<path fill="#F9F9F9" opacity="1.000000" stroke="none" 
	d="
M182.084427,51.367992 
	C175.768738,53.932724 169.994385,53.393246 164.721283,49.824402 
	C158.957581,45.923496 159.383423,39.175056 165.504272,35.845112 
	C170.653824,33.043587 176.263672,32.826069 181.180634,35.666161 
	C183.989914,37.288841 186.968964,40.644699 187.445068,43.609810 
	C187.797821,45.806656 184.240280,48.631371 182.084427,51.367992 
z"/>
<path fill="#F6F6F6" opacity="1.000000" stroke="none" 
	d="
M183.287781,241.978226 
	C183.287781,238.383865 183.287781,235.266785 183.287781,231.871552 
	C189.417099,231.871552 195.134079,231.871552 201.092270,231.871552 
	C201.092270,238.098587 201.092270,244.166351 201.092270,250.512054 
	C195.226044,250.512054 189.535324,250.512054 183.287766,250.512054 
	C183.287766,247.669952 183.287766,245.062729 183.287781,241.978226 
z"/>
<path fill="#F7F7F7" opacity="1.000000" stroke="none" 
	d="
M260.604645,129.336914 
	C259.231445,125.670380 257.277008,122.318718 257.139923,118.894295 
	C256.879822,112.397133 262.610687,109.098351 268.508514,111.988960 
	C274.048431,114.704163 276.949554,119.386780 277.026215,125.552414 
	C277.116302,132.794891 271.061462,136.280411 264.705719,132.709991 
	C263.287292,131.913162 262.124481,130.661301 260.604645,129.336914 
z"/>
<path fill="#F8F8F8" opacity="1.000000" stroke="none" 
	d="
M200.438690,210.889008 
	C194.681442,211.010788 189.366486,211.010788 183.672684,211.010788 
	C183.672684,204.811844 183.672684,198.782455 183.672684,192.428192 
	C189.420410,192.428192 195.136703,192.428192 200.880981,192.428192 
	C200.880981,198.574020 200.880981,204.670624 200.438690,210.889008 
z"/>
<path fill="#F9F9F9" opacity="1.000000" stroke="none" 
	d="
M237.167664,52.520073 
	C237.433472,47.113613 239.056747,45.432003 243.807739,46.003510 
	C250.344772,46.789871 255.265518,50.244080 258.071564,56.242825 
	C260.229156,60.855347 257.950378,64.414223 252.909317,64.135353 
	C245.434006,63.721817 240.302231,59.673706 237.167664,52.520073 
z"/>
<path fill="#F6F6F6" opacity="1.000000" stroke="none" 
	d="
M127.381378,73.533615 
	C128.253113,65.735863 136.302490,60.775051 143.048752,63.475033 
	C146.297562,64.775269 147.890030,67.233025 146.717697,70.604675 
	C145.208984,74.943741 141.529114,77.068703 137.273376,77.826447 
	C133.383133,78.519104 129.531189,78.251701 127.381378,73.533615 
z"/>
<path fill="#FBFBFB" opacity="1.000000" stroke="none" 
	d="
M98.410736,175.255249 
	C98.411789,178.671280 98.411789,181.624786 98.411789,184.782257 
	C92.613724,184.782257 87.210800,184.782257 81.478096,184.782257 
	C81.478096,180.560501 81.478096,176.372772 81.478096,171.661102 
	C86.363800,171.661102 91.128006,171.498993 95.862350,171.802597 
	C96.771637,171.860931 97.563591,173.748856 98.410736,175.255249 
z"/>
<path fill="#F6F6F6" opacity="1.000000" stroke="none" 
	d="
M198.100281,32.570648 
	C194.302658,30.993940 190.439056,30.020737 187.614319,27.753317 
	C184.469482,25.228949 185.715775,20.571911 189.673874,20.303337 
	C194.046188,20.006655 198.718842,21.093273 202.902710,22.582870 
	C204.540863,23.166115 206.170685,26.568886 205.992355,28.522116 
	C205.863159,29.937424 202.802979,31.167870 200.938339,32.296616 
	C200.296417,32.685192 199.317520,32.517052 198.100281,32.570648 
z"/>
<path fill="#F6F6F6" opacity="1.000000" stroke="none" 
	d="
M134.797180,33.658966 
	C139.384750,32.827393 143.711166,31.718355 147.974350,31.923508 
	C149.714874,32.007267 152.565720,34.884068 152.639648,36.588699 
	C152.716324,38.356007 150.349792,41.323994 148.506134,41.848408 
	C144.844650,42.889881 140.662903,43.387653 136.962677,42.692162 
	C131.992691,41.758007 131.286621,38.158100 134.797180,33.658966 
z"/>
<path fill="#F4F4F4" opacity="1.000000" stroke="none" 
	d="
M223.132721,25.066980 
	C227.426743,26.995934 231.467667,28.688250 235.094238,31.023924 
	C236.076691,31.656675 236.428101,34.468121 235.911423,35.845203 
	C235.508057,36.920261 233.064529,38.186493 231.957260,37.869045 
	C227.957443,36.722321 223.597885,35.657639 220.384903,33.226288 
	C216.045197,29.942326 217.240677,26.734381 223.132721,25.066980 
z"/>
<path fill="#F3F3F3" opacity="1.000000" stroke="none" 
	d="
M282.725525,91.758614 
	C277.131165,91.458473 272.237610,87.845634 271.546692,83.286232 
	C271.350647,81.992554 272.866913,79.342560 273.944702,79.137535 
	C279.376068,78.104271 285.196838,86.264778 282.725525,91.758614 
z"/>
<path fill="#F4F4F4" opacity="1.000000" stroke="none" 
	d="
M268.821716,60.169395 
	C266.722504,57.739017 263.211823,55.417305 265.994324,52.637272 
	C267.108734,51.523861 271.590302,52.811455 273.910583,54.120476 
	C276.785522,55.742371 280.833496,58.791019 278.249420,62.193951 
	C275.732330,65.508682 272.002563,62.210312 268.821716,60.169395 
z"/>
<path fill="#F0F0F0" opacity="1.000000" stroke="none" 
	d="
M182.734619,14.235979 
	C179.511749,11.369104 180.451797,9.198051 183.858490,9.221244 
	C186.743668,9.240887 189.646973,10.884302 192.453171,12.027744 
	C192.755646,12.150984 192.464828,13.730260 192.449219,14.634127 
	C189.325455,14.571705 186.201675,14.509282 182.734619,14.235979 
z"/>
<path fill="#E6E6E6" opacity="1.000000" stroke="none" 
	d="
M160.058731,21.115463 
	C158.866165,19.914858 158.038055,18.821989 157.209961,17.729118 
	C158.421051,16.976141 159.705383,15.503333 160.828262,15.617559 
	C163.291641,15.868149 165.698013,16.856236 168.055130,17.737230 
	C168.330643,17.840206 168.289276,19.798424 168.160583,19.826593 
	C165.602142,20.386644 163.009171,20.788944 160.058731,21.115463 
z"/>
<path fill="#F0F0F0" opacity="1.000000" stroke="none" 
	d="
M233.391388,18.915752 
	C235.873245,20.386276 238.001541,21.800674 240.658112,23.566145 
	C234.928986,26.618874 230.799347,24.862698 228.827118,19.175962 
	C230.344788,19.061945 231.691315,18.960785 233.391388,18.915752 
z"/>
<path fill="#E6E6E6" opacity="1.000000" stroke="none" 
	d="
M254.904297,39.046646 
	C253.322678,37.389748 252.104797,35.845383 250.886932,34.301018 
	C251.560135,33.944477 252.486923,33.110229 252.864441,33.310646 
	C254.961365,34.423874 258.015656,35.370243 258.700409,37.156467 
	C260.008972,40.569969 257.191528,39.690838 254.904297,39.046646 
z"/>
<path fill="#E6E6E6" opacity="1.000000" stroke="none" 
	d="
M207.645569,13.347471 
	C209.655273,9.804733 212.071045,10.229115 215.156952,14.525344 
	C212.372787,16.938194 210.119934,15.255041 207.645569,13.347471 
z"/>
<path fill="#151515" opacity="1.000000" stroke="none" 
	d="
M27.795074,214.092041 
	C28.983719,211.487183 29.703293,208.959488 31.258764,207.150620 
	C35.898323,201.755157 43.983440,202.539032 47.034454,208.916626 
	C50.880508,216.956116 50.739365,225.365784 46.986561,233.479507 
	C45.178200,237.389282 41.878208,239.519745 37.365005,239.279648 
	C32.737152,239.033447 29.578335,236.266632 28.870134,232.136581 
	C27.879665,226.360382 28.040066,220.386856 27.795074,214.092041 
z"/>
<path fill="#151515" opacity="1.000000" stroke="none" 
	d="
M288.822693,229.461975 
	C287.625946,231.888657 286.838348,234.182175 285.380310,235.909973 
	C281.077789,241.008453 273.356323,240.591919 270.201447,234.772430 
	C265.643707,226.365295 265.615906,217.508011 269.961334,208.951920 
	C271.918610,205.098068 275.746643,202.647507 279.885040,204.018433 
	C282.948364,205.033218 286.991577,207.783279 287.630463,210.466858 
	C289.050781,216.432617 288.608521,222.841843 288.822693,229.461975 
z"/>
<path fill="#161616" opacity="1.000000" stroke="none" 
	d="
M149.898285,221.894104 
	C148.885162,226.317886 148.358658,230.507385 146.725388,234.208466 
	C145.071350,237.956604 141.291428,240.272644 137.300568,239.037796 
	C134.323639,238.116669 130.810074,235.778488 129.534729,233.114319 
	C126.036827,225.807358 126.140221,217.913589 129.279984,210.373734 
	C131.070435,206.074097 134.507202,203.554825 139.441010,203.735123 
	C144.305710,203.912857 147.095123,206.902130 148.316162,211.172302 
	C149.261230,214.477402 149.401398,218.012634 149.898285,221.894104 
z"/>
</svg>